<svg xmlns="http://www.w3.org/2000/svg" xmlns:xlink="http://www.w3.org/1999/xlink" width="24" height="24" class=""><defs><path id="0dnpcgv4ba" d="M0 0h24v24H0z"></path></defs><g fill="none" fill-rule="evenodd"><mask id="bgfdwwcwub" fill="#fff"><use xlink:href="#0dnpcgv4ba"></use></mask><path fill="#FFF" fill-rule="nonzero" d="M21 3a3 3 0 0 1 3 3v13a3 3 0 0 1-3 3H3a3 3 0 0 1-3-3V6a3 3 0 0 1 3-3h18zm0 1H3a2.001 2.001 0 0 0-1.995 1.85L1 6v13c0 1.054.816 1.918 1.85 1.995L3 21h18a2.001 2.001 0 0 0 1.995-1.85L23 19V6a2 2 0 0 0-1.85-1.994L21 4z" mask="url(#bgfdwwcwub)"></path><path fill="#FFF" fill-rule="nonzero" d="M11.924.084a.5.5 0 0 1 .636.068l.057.07 2 3a.5.5 0 0 1-.776.626l-.056-.07-2-3a.5.5 0 0 1 .139-.694z" mask="url(#bgfdwwcwub)" transform="matrix(-1 0 0 1 26.402 0)"></path><path fill="#FFF" fill-rule="nonzero" d="M9.924.084a.5.5 0 0 1 .636.068l.057.07 2 3a.5.5 0 0 1-.776.626l-.056-.07-2-3a.5.5 0 0 1 .139-.694zM7.786 15.093c.113 0 .196-.039.25-.118a.477.477 0 0 0 .082-.28.479.479 0 0 0-.081-.28c-.055-.08-.138-.119-.251-.119H5.645v-4.09c0-.142-.047-.246-.14-.31a.584.584 0 0 0-.333-.095.581.581 0 0 0-.332.095c-.093.064-.14.168-.14.31v4.275c0 .23.046.39.137.48.09.088.254.132.49.132h2.459zm1.506.045a.576.576 0 0 0 .332-.096c.093-.064.14-.168.14-.31v-4.525c0-.143-.047-.247-.14-.31a.576.576 0 0 0-.332-.096.582.582 0 0 0-.333.095c-.093.064-.14.168-.14.31v4.526c0 .142.047.246.14.31a.577.577 0 0 0 .333.096zm3.654 0c.128 0 .24-.03.335-.089.096-.059.179-.175.248-.347l1.668-4.304c.054-.142.053-.262-.004-.358a.46.46 0 0 0-.262-.203.548.548 0 0 0-.361-.01c-.114.036-.197.126-.251.269l-1.351 3.831-1.322-3.846c-.049-.138-.135-.224-.258-.258a.594.594 0 0 0-.37.014.503.503 0 0 0-.269.21c-.056.097-.057.216-.003.359l1.624 4.296c.069.172.151.288.247.347.096.06.206.089.329.089zm6.43-.045c.112 0 .195-.038.246-.114a.48.48 0 0 0 .078-.277.485.485 0 0 0-.078-.273c-.051-.079-.134-.118-.247-.118h-2.259v-1.52h2.06c.108 0 .188-.039.24-.115a.476.476 0 0 0 .077-.27.478.478 0 0 0-.077-.27c-.052-.075-.132-.114-.24-.114h-2.06v-1.395h2.208c.113 0 .195-.04.247-.118a.493.493 0 0 0 .077-.273.49.49 0 0 0-.077-.277c-.052-.076-.134-.114-.247-.114h-2.518c-.236 0-.4.044-.49.133-.092.088-.137.248-.137.48v4.023c0 .23.045.39.136.48.091.088.255.132.491.132h2.57z" mask="url(#bgfdwwcwub)"></path></g></svg>