<svg xmlns="http://www.w3.org/2000/svg" width="98" height="20" class=""><path d="M26.17 2l-3.89 11.422-.489 1.435-.488-1.435L17.415 2h-2.83l-3.889 11.422-.488 1.435-.489-1.435L5.83 2H3l4.893 14.374.002.004c.206.631.69 1.144 1.313 1.414a2.507 2.507 0 0 0 1.999 0 2.356 2.356 0 0 0 1.314-1.415v-.003L16 6.157l3.478 10.217.002.004c.206.631.69 1.144 1.313 1.414a2.507 2.507 0 0 0 1.999 0 2.356 2.356 0 0 0 1.313-1.415l.002-.003L29 2h-2.83zM38.5 15.42c-3.175 0-5.758-2.432-5.758-5.42s2.583-5.42 5.758-5.42c3.13 0 5.681 2.362 5.755 5.29h-.003v.349c-.122 2.887-2.655 5.2-5.752 5.2M47 10c0-4.411-3.813-8-8.5-8-4.687 0-8.5 3.589-8.5 8s3.813 8 8.5 8a8.764 8.764 0 0 0 5.752-2.117V18h2.742v-7.781c.002-.073.006-.146.006-.219m40.5-5.42c2.703 0 4.975 1.763 5.592 4.13H81.908c.617-2.367 2.89-4.13 5.592-4.13zm4.511 8.781c-1.055 1.253-2.684 2.058-4.511 2.058-2.703 0-4.975-1.761-5.592-4.129h11.184l-.002.007h2.797A7.56 7.56 0 0 0 96 10c0-4.411-3.813-8-8.5-8-4.687 0-8.5 3.589-8.5 8s3.813 8 8.5 8c3.412 0 6.358-1.902 7.71-4.639h-3.199zM59.255 2l-3.781 11.431L55 14.863l-.474-1.432L50.746 2H48l4.756 14.377.001.004c.2.63.67 1.142 1.274 1.412a2.372 2.372 0 0 0 1.938 0 2.326 2.326 0 0 0 1.274-1.413l.001-.003L62 2h-2.745zm16 0l-3.781 11.431L71 14.863l-.474-1.432L66.746 2H64l4.756 14.377.001.004c.2.63.67 1.142 1.274 1.412a2.373 2.373 0 0 0 1.938 0 2.326 2.326 0 0 0 1.274-1.413l.001-.003L78 2h-2.745z" fill="#FFF" fill-rule="evenodd"></path></svg>